<svg width="64" height="64" viewBox="0 0 64 64" fill="none" xmlns="http://www.w3.org/2000/svg">
<rect width="64" height="64" rx="12" fill="#E4E7FF"/>
<path d="M32 44C37.1546 44 41.3333 39.8213 41.3333 34.6666C41.3333 29.512 37.1546 25.3333 32 25.3333C26.8453 25.3333 22.6667 29.512 22.6667 34.6666C22.6667 39.8213 26.8453 44 32 44Z" stroke="#4C5EFF" stroke-width="2" stroke-linecap="round" stroke-linejoin="round"/>
<path d="M32 30.6667V22.6667C32 21.9594 32.281 21.2811 32.781 20.781C33.2811 20.281 33.9594 20 34.6667 20H37.3333V21.3333C37.3333 22.0406 37.0524 22.7189 36.5523 23.219C36.0522 23.719 35.3739 24 34.6667 24H32" stroke="#4C5EFF" stroke-width="2" stroke-linecap="round" stroke-linejoin="round"/>
<path d="M29.3333 30C31.1107 30.8893 32.8893 30.8893 34.6667 30" stroke="#4C5EFF" stroke-width="2" stroke-linecap="round" stroke-linejoin="round"/>
</svg>
