<svg width="20" height="20" viewBox="0 0 20 20" fill="none" xmlns="http://www.w3.org/2000/svg">
<path fill-rule="evenodd" clip-rule="evenodd" d="M13.5601 8.56012C13.5601 10.4011 12.0677 11.8935 10.2267 11.8935C8.38582 11.8935 6.89343 10.4011 6.89343 8.56012C6.89343 6.71919 8.38582 5.22681 10.2267 5.22681C12.0677 5.22681 13.5601 6.71919 13.5601 8.56012ZM11.8934 8.56012C11.8934 9.48062 11.1472 10.2268 10.2267 10.2268C9.30632 10.2268 8.56007 9.48062 8.56007 8.56012C8.56007 7.63967 9.30632 6.89347 10.2267 6.89347C11.1472 6.89347 11.8934 7.63967 11.8934 8.56012Z" fill="#6A707D"/>
<path fill-rule="evenodd" clip-rule="evenodd" d="M4.82848 13.7652C1.82853 10.909 1.71198 6.16166 4.56815 3.16173C7.42432 0.161788 12.1716 0.0452377 15.1716 2.9014C18.1715 5.75757 18.2881 10.5048 15.4319 13.5048L10.2603 18.9367L4.82848 13.7652ZM14.2248 12.3556L10.2025 16.5803L5.9777 12.5581C3.64442 10.3366 3.55377 6.64424 5.77523 4.31095C7.99669 1.97767 11.689 1.88702 14.0223 4.10849C16.3556 6.32994 16.4463 10.0223 14.2248 12.3556Z" fill="#6A707D"/>
</svg>
